<svg xmlns="http://www.w3.org/2000/svg" viewBox="0 0 512 512" width="512" height="512" role="img" aria-label="Bergwetter">
  <defs>
    <linearGradient id="tile" x1="0" y1="1" x2="1" y2="0">
      <stop offset="0%" stop-color="#006064"/>
      <stop offset="55%" stop-color="#2F8A8E"/>
      <stop offset="100%" stop-color="#3E969A"/>
    </linearGradient>
  </defs>
  <rect width="512" height="512" fill="url(#tile)"/>

  <!-- Sonne: sand-300, lugt hinter der Spitze des Hauptgipfels hervor -->
  <circle cx="278" cy="148" r="50" fill="#DBAE8D"/>

  <!-- Doppelgipfel-Marke, glatte Kurvenversion (aus firn-ai-app-icon.svg) -->
  <g transform="translate(91 178.598) scale(0.390533)">
    <path d="M 593 135 C 596.8 119.9 495.6 24.6 474 8 C 467.2 2.8 464.4 1.2 459 0 C 453.4 -1.2 446 -0.5 441 1 C 437 2.2 435.7 3.3 431 7 C 414.6 19.8 369.3 70.7 332 107 C 285.6 152.1 221.2 213.3 173 256 C 134.6 290.1 96.7 322.2 67 345 C 46.7 360.6 25.5 370.8 14 382 C 7.1 388.8 1.1 395.3 0 401 C -0.7 405 0.7 409 3 412 C 5.8 415.6 9.3 418 17 420 L 199 419 C 225.9 416.6 242.8 413.4 263 408 C 282 402.9 302.6 394.6 317 388 C 327.1 383.3 332.9 380 342 374 C 354.2 366 369.3 355.5 383 343 C 399.3 328.1 414.7 310 432 289 C 454.1 262.2 482.7 216.4 503 194 C 515.6 180.1 524.8 171.9 537 163 C 548.9 154.3 564.5 145.7 575 141 C 581.9 137.9 591.7 140 593 135 Z" fill="#FFFFFF"/>
    <path d="M 844 386 C 842.7 380.5 839.8 374.9 833 365 C 810.7 332.8 696.1 201.7 665 177 C 655.2 169.2 651.2 167.4 643 165 C 634 162.4 622.2 161.9 613 163 C 604.7 164 597.9 166.3 590 170 C 580.3 174.6 570 181.6 560 190 C 548 200.1 538 211.4 524 228 C 501 255.3 464.5 313.5 439 342 C 421.7 361.4 408.1 374 391 387 C 374.4 399.6 335.8 411.1 338 419 L 821 419 C 831.9 415.7 835.2 411.8 839 407 C 842.1 403.2 843.3 397.9 844 394 C 844.5 391.1 844.8 389.2 844 386 Z" fill="#DBAE8D"/>
  </g>
</svg>
